<?xml version="1.0" encoding="UTF-8"?>
<svg xmlns="http://www.w3.org/2000/svg" id="Layer_1" data-name="Layer 1" viewBox="0 0 512 512" width="512" height="512"><path d="M189.59,162.42v-.03l-14.13-.03C97.54,162.11,53.97,220.54,53.97,299.1L53.3,430.48H53.29l-.15,30.41L52.96,495h30l.18-34.11.145-29.41h.005l.68-132.38c0-73.056,37.686-128.694,105.629-135.932Z" style="fill:#d4e1f4"/><path d="M455.581,207.467l-107.1,1.963c-2.174.041-4.379.016-6.553-.074a34.97,34.97,0,0,1-24.668-14.1l-14.72-19.58a47.09,47.09,0,0,0-32.128-18.741V17a6,6,0,0,0-9.38-4.957,130.649,130.649,0,0,0-18.092,15.474,101.242,101.242,0,0,0-6.861,7.807V17a6,6,0,0,0-10.352-4.13,262.219,262.219,0,0,0-33.8,46.838c-19.462,34.258-27.527,67.542-23.556,96.789-32.225,1.357-60.081,12.921-80.834,33.607C62.023,215.54,47.969,254.25,47.969,299.072l-1.013,195.9a6.014,6.014,0,0,0,3.689,5.573A6.262,6.262,0,0,0,53.1,501H243.49a6,6,0,0,0,6-6V451.218h54.238V495a6,6,0,0,0,6,6h55.324a6,6,0,0,0,6-6.025l-.868-209.6c9.633.163,18.367.2,26.546.118,14.752-.147,24.723-4.95,32.328-15.57,7.113-9.933,12.4-25.554,16.955-50.281l9.788-.18a6,6,0,0,0-.22-12ZM236.082,64.326c0-12.43,12.293-26.154,22.333-34.975V156.6c-4.521-.015-11.515-.037-22.333-.069Zm-12-30.872V156.5l-43.612-.127C172.828,106.635,206.359,56.114,224.082,33.454ZM237.49,489H58.987l.115-22.108H237.49Zm0-34.108H59.164l.095-18.409H237.49Zm20.5-15.674h-8.5V379.132h8.5Zm23.1,0h-11.1V379.132h11.1Zm22.636,0H293.092V379.132h10.636Zm12,49.782V468.33h43.214l.085,20.67Zm4.262-107.528h-4.262V353.3h4.262a6,6,0,0,0,0-12h-4.262V329.4a44.626,44.626,0,0,1,9.941-28.459c7.823-9.457,18.741-14.677,32.515-15.562l.574,138.516h-43.03V393.472h4.262a6,6,0,0,0,0-12ZM358.807,435.9l.085,20.435H315.728V435.9Zm37.8-162.4c-9.76.1-20.333.021-32.323-.234-25.421-.553-40.058,10.593-47.863,20.029A56.64,56.64,0,0,0,303.728,329.4v37.732H249.49V348.3a6,6,0,0,0-12,0v76.179H200.1V314.5a6,6,0,0,0-12,0v109.98H151.27V337.262a6,6,0,0,0-12,0v87.221H102.443V299.015a6,6,0,0,0-12,0V424.483H59.321l.212-41.053h3.523a6,6,0,0,0,0-12H59.6l.146-28.168h3.315a6,6,0,0,0,0-12H59.8l.166-32.158c0-41.641,12.8-77.333,36.045-100.5,19.955-19.891,47.4-30.363,79.424-30.244l8.223.023.692,58.817a60.107,60.107,0,0,0,6.4,26.647c12.453,24.243,35.656,29.777,46.736,31.021V308.3a6,6,0,0,0,12,0V279.232a5.83,5.83,0,0,0-.222-1.663,6.021,6.021,0,0,0-5.928-4.35c-.288,0-28.925.426-41.912-24.857a48.047,48.047,0,0,1-5.076-21.3l-.086-7.322H271.28l11.443,15.328a6,6,0,1,0,9.616-7.178L279.1,210.146a6,6,0,0,0-4.808-2.41H196.125l-.462-39.319c30.71.089,68.787.2,70.737.216a34.978,34.978,0,0,1,26.551,14.257l14.72,19.58a46.965,46.965,0,0,0,33.372,18.854c.084.007.168.012.253.016,2.456.1,4.949.135,7.408.088l85.053-1.559C424.269,269.257,412.286,273.34,396.609,273.5Z" style="fill:#0635c9"/><path d="M401.116,501h18.078a6,6,0,0,0,6-6V401.133c0-6.3,3.623-10.758,7.948-13.842a59.926,59.926,0,0,1,1.74,17.93,15.039,15.039,0,0,0,30.042,1.465c2.872-58.907-46.414-82.139-48.514-83.1a15.038,15.038,0,0,0-12.554,27.331,58.483,58.483,0,0,1,14.1,10.406c-14.61,9.548-22.837,23.724-22.837,39.81V495A6,6,0,0,0,401.116,501Zm6-99.867c0-18.75,14.374-28.675,22.943-32.923a6,6,0,0,0,2.016-9.128,72.1,72.1,0,0,0-23.184-19.057,3.038,3.038,0,1,1,2.529-5.525c1.8.822,44,20.72,41.518,71.6a3.031,3.031,0,0,1-3.028,2.889l-.155,0a3.039,3.039,0,0,1-2.888-3.183,69.865,69.865,0,0,0-4.725-29.53,6,6,0,0,0-8.021-3.252c-13.5,6.034-20.927,16.017-20.927,28.11V489h-6.078Z" style="fill:#1ae5be"/></svg>
