<svg id="Capa_1" enable-background="new 0 0 512 512" height="512" viewBox="0 0 512 512" width="512" xmlns="http://www.w3.org/2000/svg" xmlns:xlink="http://www.w3.org/1999/xlink"><linearGradient id="SVGID_1_" gradientUnits="userSpaceOnUse" x1="256" x2="256" y1="466" y2="46"><stop offset="0" stop-color="#00b59c"/><stop offset="1" stop-color="#9cffac"/></linearGradient><g><g><g><path d="m497 136c-24.813 0-45 20.187-45 45v30c0 57.897-48 105-107 105-57.897 0-105-47.103-105-105v-135h15c8.284 0 15-6.716 15-15s-6.716-15-15-15h-240c-8.284 0-15 6.716-15 15s6.716 15 15 15h15v165c0 60.1 23.404 116.602 65.901 159.099s98.999 65.901 159.099 65.901c60.186 0 117.019-23.379 160.029-65.832 43.187-42.626 66.971-99.153 66.971-159.168v-60c0-8.271 6.729-15 15-15 8.284 0 15-6.716 15-15s-6.716-15-15-15zm-242 300c-107.523 0-195-87.477-195-195v-165h150v77.746h-45c-8.284 0-15 6.716-15 15s6.716 15 15 15h45v27.254c0 19.788 4.28 38.595 11.962 55.545l-26.424 15.703c-7.122 4.232-9.464 13.437-5.232 20.558 4.212 7.088 13.404 9.482 20.558 5.232l26.45-15.719c17.954 23.717 43.549 41.341 73.089 49.179l-2.298 15.541c-1.212 8.195 4.449 15.821 12.645 17.033 8.176 1.212 15.818-4.434 17.033-12.644l2.296-15.527c1.634.059 3.273.099 4.921.099 35.553 0 69.256-13.574 95.106-38.245-27.597 74.746-100.158 128.245-185.106 128.245z" fill="url(#SVGID_1_)"/></g></g></g></svg>